<?xml version="1.0" encoding="utf-8"?>
<!-- Generator: Adobe Illustrator 16.0.0, SVG Export Plug-In . SVG Version: 6.00 Build 0)  -->
<!DOCTYPE svg PUBLIC "-//W3C//DTD SVG 1.1//EN" "http://www.w3.org/Graphics/SVG/1.1/DTD/svg11.dtd">
<svg version="1.1" id="Layer_1" xmlns="http://www.w3.org/2000/svg" xmlns:xlink="http://www.w3.org/1999/xlink" x="0px" y="0px"
	 width="100.672px" height="100.674px" viewBox="0 0 100.672 100.674" enable-background="new 0 0 100.672 100.674"
	 xml:space="preserve">
<g>
	<path fill="#FFFFFF" d="M75.73,50.013c0,0.937,0,1.488,0,2.039c0,9.366,0.003,18.732-0.002,28.1
		c-0.001,2.541-0.858,3.384-3.44,3.384c-14.584,0.004-29.166,0.004-43.748-0.001c-2.889-0.001-3.714-0.818-3.716-3.672
		c-0.005-9.254-0.001-18.51-0.001-27.764c0-0.541,0-1.084,0-1.875c-0.579,0.301-0.906,0.451-1.215,0.632
		c-1.305,0.767-2.488,0.58-3.47-0.534c-0.893-1.013-0.827-2.568,0.264-3.66c2.216-2.221,4.514-4.359,6.786-6.523
		c1.176-1.121,2.434-2.164,3.526-3.359c0.437-0.479,0.717-1.265,0.743-1.924c0.089-2.296,0.005-4.598,0.045-6.896
		c0.038-2.197,1-3.353,2.694-3.361c1.822-0.009,2.755,1.141,2.771,3.42c0.005,0.77,0.001,1.539,0.001,2.742
		c2.187-2.04,4.09-3.803,5.979-5.582c1.713-1.613,3.393-3.262,5.119-4.859c1.711-1.585,2.938-1.58,4.666,0.051
		c3.056,2.883,6.069,5.811,9.114,8.707c5.683,5.405,11.376,10.799,17.061,16.201c0.487,0.463,0.975,0.931,1.414,1.438
		c1.008,1.166,1.145,2.414,0.172,3.665c-0.83,1.068-2.283,1.202-3.64,0.386C76.581,50.603,76.327,50.413,75.73,50.013z
		 M70.394,78.019c0.038-0.701,0.104-1.354,0.104-2.01c0.006-9.753-0.023-19.505,0.037-29.257c0.01-1.422-0.425-2.409-1.438-3.365
		c-5.701-5.38-11.362-10.802-17.019-16.229c-1.711-1.644-1.707-1.694-3.449-0.037c-5.802,5.518-11.61,11.029-17.345,16.616
		c-0.585,0.571-0.974,1.632-0.979,2.468c-0.066,10.032-0.044,20.063-0.04,30.097c0,0.545,0.047,1.09,0.076,1.717
		C43.712,78.019,56.97,78.019,70.394,78.019z"/>
</g>
<g>
	<path fill="#FFFFFF" d="M111.243,150.138c0,0.938,0,1.488,0,2.039c0,9.366,0.003,18.732-0.002,28.1
		c-0.001,2.541-0.858,3.384-3.44,3.384c-14.584,0.004-29.165,0.004-43.747-0.001c-2.89-0.001-3.715-0.818-3.717-3.672
		c-0.005-9.254,0-18.51,0-27.764c0-0.541,0-1.084,0-1.875c-0.58,0.301-0.906,0.451-1.216,0.633c-1.305,0.767-2.487,0.58-3.47-0.534
		c-0.893-1.013-0.827-2.568,0.264-3.66c2.217-2.222,4.514-4.359,6.786-6.522c1.176-1.121,2.435-2.164,3.526-3.359
		c0.437-0.479,0.717-1.266,0.742-1.924c0.09-2.297,0.006-4.599,0.045-6.896c0.039-2.197,1-3.354,2.694-3.361
		c1.822-0.009,2.755,1.142,2.771,3.42c0.006,0.771,0.002,1.539,0.002,2.742c2.187-2.039,4.09-3.803,5.979-5.582
		c1.713-1.613,3.393-3.262,5.119-4.859c1.711-1.584,2.938-1.579,4.666,0.052c3.056,2.883,6.069,5.812,9.114,8.707
		c5.683,5.405,11.376,10.799,17.061,16.2c0.487,0.464,0.975,0.932,1.414,1.438c1.008,1.166,1.145,2.414,0.172,3.665
		c-0.83,1.068-2.283,1.202-3.64,0.387C112.093,150.728,111.839,150.538,111.243,150.138z M105.907,178.144
		c0.038-0.701,0.104-1.354,0.104-2.01c0.006-9.753-0.023-19.505,0.037-29.257c0.01-1.422-0.425-2.409-1.438-3.365
		c-5.701-5.38-11.362-10.802-17.019-16.229c-1.712-1.644-1.706-1.694-3.448-0.037c-5.803,5.519-11.61,11.028-17.346,16.616
		c-0.584,0.57-0.974,1.632-0.979,2.468c-0.066,10.032-0.044,20.063-0.04,30.097c0,0.545,0.047,1.09,0.075,1.717
		C79.225,178.144,92.483,178.144,105.907,178.144z"/>
</g>
</svg>
