<svg width="40" height="40" viewBox="0 0 40 40" fill="none" xmlns="http://www.w3.org/2000/svg">
<circle cx="20" cy="20" r="19" stroke="#F8F8F8" stroke-width="2"/>
<path d="M14.7669 28H20.3869C23.6269 28 26.2069 26.64 26.2069 23.6C26.2069 21.62 25.0669 20.5 23.5669 20.1V20.02C24.7669 19.56 25.5069 18.12 25.5069 16.8C25.5069 13.94 23.0469 13.12 19.9669 13.12H14.7669V28ZM18.3469 19.02V15.84H19.8269C21.3269 15.84 22.0269 16.28 22.0269 17.34C22.0269 18.36 21.3469 19.02 19.8269 19.02H18.3469ZM18.3469 25.26V21.66H20.1269C21.8669 21.66 22.7269 22.14 22.7269 23.36C22.7269 24.64 21.8469 25.26 20.1269 25.26H18.3469Z" fill="#F8F8F8"/>
</svg>
