<svg width="21" height="23" viewBox="0 0 21 23" fill="none" xmlns="http://www.w3.org/2000/svg">
<mask id="mask0" mask-type="alpha" maskUnits="userSpaceOnUse" x="0" y="0" width="21" height="23">
<path fill-rule="evenodd" clip-rule="evenodd" d="M0 0H21V23H0V0Z" fill="white"/>
</mask>
<g mask="url(#mask0)">
<path fill-rule="evenodd" clip-rule="evenodd" d="M4.96812 15.0758C4.24581 15.8125 4.24581 17.0164 4.96812 17.7352C5.67282 18.4539 6.87081 18.4898 7.71644 17.8609L12.8255 12.65L13.4245 12.0569L18.7978 6.57656C19.9606 5.37266 19.9606 3.45 18.7978 2.24609C17.6351 1.06016 15.7324 1.06016 14.552 2.24609L13.4069 3.41406L9.83054 7.06154L2.5193 14.5186C1.76174 15.2912 1.33893 16.3516 1.33893 17.4656C1.33893 18.5797 1.76174 19.6397 2.53691 20.4123C4.1401 22.0477 6.74748 22.0477 8.33305 20.4123L16.1023 12.4883L17.0361 13.4404L9.26678 21.3828C8.20973 22.4609 6.81795 23 5.42617 23C4.0344 23 2.64262 22.4609 1.58557 21.3828C0.563758 20.3406 0 18.957 0 17.4656C0 15.9742 0.563758 14.5906 1.58557 13.5484L13.6183 1.29375C15.3096 -0.43125 18.0403 -0.43125 19.7315 1.29375C21.4228 3.01857 21.4228 5.80373 19.7315 7.52891L14.3582 13.0094L13.7592 13.6023L8.54446 18.9031C7.89262 19.4062 7.11745 19.6578 6.3599 19.6578C5.49664 19.6578 4.65101 19.3342 4.01678 18.6875C3.41779 18.0764 3.08305 17.2678 3.08305 16.4053C3.08305 15.543 3.41779 14.7344 4.01678 14.1233L9.67198 8.35547L10.6057 9.30763L4.96812 15.0758Z" fill="#282828"/>
</g>
</svg>
