<svg xmlns="http://www.w3.org/2000/svg" width="30" height="26.227" viewBox="0 0 30 26.227">
  <g id="select_photo" transform="translate(-1132 -1725.575)">
    <g id="LuC9J9" transform="translate(1132 1725.575)">
      <g id="그룹_2299" data-name="그룹 2299" transform="translate(0)">
        <path id="패스_4204" data-name="패스 4204" d="M-29.966,5334.709q-5.735,0-11.471,0c-2.376,0-3.432-1.056-3.432-3.406q0-7.922,0-15.844c0-2.11,1.068-3.194,3.188-3.216,1.375-.015,2.751-.021,4.126.005a.818.818,0,0,0,.906-.615c1.187-3.027,1.377-3.144,4.647-3.144,1.981,0,3.961-.007,5.942,0a2.318,2.318,0,0,1,2.442,1.7c.79,2.052.79,2.049,3.029,2.053,1.045,0,2.093-.025,3.134.041a2.678,2.678,0,0,1,2.573,2.709q.026,8.458,0,16.917c-.005,1.7-1.271,2.792-3.2,2.8C-22.044,5334.718-26.005,5334.709-29.966,5334.709Zm12.27-19.671c-.325-.015-.622-.038-.918-.039-1.76,0-3.521-.03-5.28.013-.647.016-1.007-.152-1.2-.805a17.006,17.006,0,0,0-.9-2.389,1.042,1.042,0,0,0-.742-.531q-3.134-.064-6.27,0a1.04,1.04,0,0,0-.743.528,23.7,23.7,0,0,0-.964,2.54.841.841,0,0,1-.965.653c-1.7-.028-3.41-.011-5.115-.011h-1.239v16.88H-17.7Z" transform="translate(44.87 -5308.485)" fill="#73c6fd"/>
        <path id="패스_4205" data-name="패스 4205" d="M-13.7,5346.569a6.95,6.95,0,0,1-6.96-6.968,6.987,6.987,0,0,1,7.015-7.012,7.034,7.034,0,0,1,6.98,6.984A7,7,0,0,1-13.7,5346.569Zm0-2.771a4.241,4.241,0,0,0,4.277-4.2,4.3,4.3,0,0,0-4.259-4.236,4.28,4.28,0,0,0-4.229,4.177A4.234,4.234,0,0,0-13.7,5343.8Z" transform="translate(28.671 -5325.417)" fill="#73c6fd"/>
      </g>
    </g>
  </g>
</svg>
