<svg width="40" height="40" viewBox="0 0 40 40" fill="none" xmlns="http://www.w3.org/2000/svg">
<mask id="mask0" mask-type="alpha" maskUnits="userSpaceOnUse" x="10" y="13" width="19" height="14">
<path fill-rule="evenodd" clip-rule="evenodd" d="M10 13H29V27H10V13Z" fill="white"/>
</mask>
<g mask="url(#mask0)">
<path fill-rule="evenodd" clip-rule="evenodd" d="M17.2079 23.0469V16.9524L22.9395 19.9997L17.2079 23.0469ZM28.8233 15.6417C28.6612 14.2294 28.3285 13.8162 28.0947 13.6282C27.718 13.3293 27.0364 13.2258 26.1254 13.1621C24.6614 13.0599 22.1837 13 19.4995 13C16.8152 13 14.3387 13.0599 12.8748 13.1621C11.9643 13.2258 11.2821 13.3293 10.9061 13.6282C10.6711 13.8162 10.3396 14.2294 10.1763 15.6417C9.94124 17.6784 9.94124 22.3216 10.1763 24.3583C10.3396 25.77 10.6711 26.1831 10.9061 26.3705C11.2821 26.6714 11.9643 26.7748 12.8748 26.8385C14.3387 26.9388 16.8152 27 19.4995 27C22.185 27 24.6614 26.9388 26.1254 26.8385C27.0364 26.7748 27.718 26.6714 28.0947 26.3705C28.3285 26.1831 28.6612 25.77 28.8233 24.3583C29.0589 22.3216 29.0589 17.6784 28.8233 15.6417Z" fill="#F8F8F8"/>
</g>
<circle cx="20" cy="20" r="19" stroke="#F8F8F8" stroke-width="2"/>
</svg>
